M48
; DRILL file {KiCad (7.0.0)} date Thu Feb 16 16:37:20 2023
; FORMAT={-:-/ absolute / inch / decimal}
; #@! TF.CreationDate,2023-02-16T16:37:20+01:00
; #@! TF.GenerationSoftware,Kicad,Pcbnew,(7.0.0)
; #@! TF.FileFunction,Plated,1,2,PTH
FMAT,2
INCH
; #@! TA.AperFunction,Plated,PTH,ViaDrill
T1C0.0236
; #@! TA.AperFunction,Plated,PTH,ComponentDrill
T2C0.0394
; #@! TA.AperFunction,Plated,PTH,ComponentDrill
T3C0.1260
%
G90
G05
T1
X4.3504Y-2.5787
X4.3504Y-2.7362
X4.4213Y-2.0118
X4.4291Y-2.1654
X4.5748Y-1.8976
X4.6457Y-3.0118
X4.8031Y-2.5394
X4.8031Y-2.626
X4.8541Y-2.5869
X4.8689Y-2.4737
X5.1181Y-2.3819
X5.1378Y-1.8701
X5.1378Y-2.4409
X5.1772Y-1.7323
X5.2638Y-1.7559
X5.2953Y-2.5846
X5.4606Y-1.7559
X5.5906Y-2.3425
X5.5906Y-2.5
X5.5906Y-2.5591
X5.6693Y-2.3622
X5.6693Y-2.5591
T2
X3.9Y-2.4361
X3.9Y-2.5345
X4.8843Y-1.7471
X4.9827Y-1.7471
X5.8685Y-2.5345
X5.8685Y-2.633
T3
X3.9Y-1.7471
X3.9Y-3.3219
X5.8685Y-1.7471
X5.8685Y-3.3219
T0
M30
