%TF.GenerationSoftware,KiCad,Pcbnew,(7.0.0)*%
%TF.CreationDate,2023-02-16T16:54:55+01:00*%
%TF.ProjectId,STM32_hardware,53544d33-325f-4686-9172-64776172652e,rev?*%
%TF.SameCoordinates,Original*%
%TF.FileFunction,Copper,L2,Bot*%
%TF.FilePolarity,Positive*%
%FSLAX46Y46*%
G04 Gerber Fmt 4.6, Leading zero omitted, Abs format (unit mm)*
G04 Created by KiCad (PCBNEW (7.0.0)) date 2023-02-16 16:54:55*
%MOMM*%
%LPD*%
G01*
G04 APERTURE LIST*
G04 Aperture macros list*
%AMRoundRect*
0 Rectangle with rounded corners*
0 $1 Rounding radius*
0 $2 $3 $4 $5 $6 $7 $8 $9 X,Y pos of 4 corners*
0 Add a 4 corners polygon primitive as box body*
4,1,4,$2,$3,$4,$5,$6,$7,$8,$9,$2,$3,0*
0 Add four circle primitives for the rounded corners*
1,1,$1+$1,$2,$3*
1,1,$1+$1,$4,$5*
1,1,$1+$1,$6,$7*
1,1,$1+$1,$8,$9*
0 Add four rect primitives between the rounded corners*
20,1,$1+$1,$2,$3,$4,$5,0*
20,1,$1+$1,$4,$5,$6,$7,0*
20,1,$1+$1,$6,$7,$8,$9,0*
20,1,$1+$1,$8,$9,$2,$3,0*%
G04 Aperture macros list end*
%TA.AperFunction,ComponentPad*%
%ADD10C,6.400000*%
%TD*%
%TA.AperFunction,ComponentPad*%
%ADD11RoundRect,0.250000X0.750000X-0.600000X0.750000X0.600000X-0.750000X0.600000X-0.750000X-0.600000X0*%
%TD*%
%TA.AperFunction,ComponentPad*%
%ADD12O,2.000000X1.700000*%
%TD*%
%TA.AperFunction,ComponentPad*%
%ADD13RoundRect,0.250000X-0.750000X0.600000X-0.750000X-0.600000X0.750000X-0.600000X0.750000X0.600000X0*%
%TD*%
%TA.AperFunction,ComponentPad*%
%ADD14RoundRect,0.250000X-0.600000X-0.750000X0.600000X-0.750000X0.600000X0.750000X-0.600000X0.750000X0*%
%TD*%
%TA.AperFunction,ComponentPad*%
%ADD15O,1.700000X2.000000*%
%TD*%
%TA.AperFunction,ViaPad*%
%ADD16C,1.200000*%
%TD*%
%TA.AperFunction,Conductor*%
%ADD17C,0.600000*%
%TD*%
%TA.AperFunction,Conductor*%
%ADD18C,0.500000*%
%TD*%
%TA.AperFunction,Conductor*%
%ADD19C,0.400000*%
%TD*%
G04 APERTURE END LIST*
D10*
%TO.P,H4,1,1*%
%TO.N,GND*%
X149060000Y-84377458D03*
%TD*%
%TO.P,H3,1,1*%
%TO.N,GND*%
X99060000Y-84377458D03*
%TD*%
%TO.P,H2,1,1*%
%TO.N,GND*%
X149060000Y-44377458D03*
%TD*%
%TO.P,H1,1,1*%
%TO.N,GND*%
X99060000Y-44377458D03*
%TD*%
D11*
%TO.P,J4,1,Pin_1*%
%TO.N,ADC_IN1*%
X99060000Y-64377458D03*
D12*
%TO.P,J4,2,Pin_2*%
%TO.N,GND*%
X99059999Y-61877457D03*
%TD*%
D13*
%TO.P,J3,1,Pin_1*%
%TO.N,DAC_OUT*%
X149060000Y-64377458D03*
D12*
%TO.P,J3,2,Pin_2*%
%TO.N,GND*%
X149059999Y-66877457D03*
%TD*%
D14*
%TO.P,J2,1,Pin_1*%
%TO.N,+5V*%
X124060000Y-44377458D03*
D15*
%TO.P,J2,2,Pin_2*%
%TO.N,GND*%
X126559999Y-44377457D03*
%TD*%
D16*
%TO.N,GND*%
X116200000Y-48200000D03*
X112300000Y-51100000D03*
%TO.N,+5V*%
X133700000Y-44600000D03*
X138700000Y-44600000D03*
%TO.N,NRST*%
X142000000Y-63500000D03*
%TO.N,USART2_TX*%
X122000000Y-66699500D03*
X142000000Y-65000000D03*
%TO.N,Net-(U3-GND)*%
X130500000Y-47500000D03*
X131500000Y-44000000D03*
%TO.N,LED_STATUS*%
X112500000Y-55000000D03*
X123668888Y-62831112D03*
%TO.N,+3.3VA*%
X110500000Y-65500000D03*
X110500000Y-69500000D03*
%TO.N,DAC_OUT*%
X144000000Y-65000000D03*
X118000000Y-76500000D03*
%TO.N,USART2_RX*%
X123293248Y-65706752D03*
X134500000Y-65649500D03*
%TO.N,NRST*%
X122000000Y-64500000D03*
%TO.N,SWDIO*%
X144000000Y-60000000D03*
%TO.N,SWDCLK*%
X142000000Y-59500000D03*
%TO.N,SWDIO*%
X130500000Y-62000000D03*
%TO.N,SWDCLK*%
X130000000Y-60500000D03*
%TD*%
D17*
%TO.N,GND*%
X112300000Y-51100000D02*
X113300000Y-51100000D01*
X113300000Y-51100000D02*
X116200000Y-48200000D01*
%TO.N,+5V*%
X138000000Y-43900000D02*
X138700000Y-44600000D01*
X133700000Y-44600000D02*
X134400000Y-43900000D01*
X134400000Y-43900000D02*
X138000000Y-43900000D01*
D18*
%TO.N,NRST*%
X141873654Y-63500000D02*
X142000000Y-63500000D01*
X140873654Y-64500000D02*
X141873654Y-63500000D01*
X122000000Y-64500000D02*
X140873654Y-64500000D01*
D19*
%TO.N,USART2_TX*%
X140193248Y-66806752D02*
X142000000Y-65000000D01*
X122000000Y-66699500D02*
X122107252Y-66806752D01*
X122107252Y-66806752D02*
X140193248Y-66806752D01*
D17*
%TO.N,Net-(U3-GND)*%
X130500000Y-45000000D02*
X131500000Y-44000000D01*
X130500000Y-47500000D02*
X130500000Y-45000000D01*
D19*
%TO.N,LED_STATUS*%
X123668888Y-62831112D02*
X123331112Y-62831112D01*
X123331112Y-62831112D02*
X122472534Y-61972534D01*
%TO.N,DAC_OUT*%
X132500000Y-76500000D02*
X144000000Y-65000000D01*
X118000000Y-76500000D02*
X132500000Y-76500000D01*
%TO.N,USART2_RX*%
X134442748Y-65706752D02*
X134500000Y-65649500D01*
X123293248Y-65706752D02*
X134442748Y-65706752D01*
%TO.N,SWDIO*%
X143000000Y-61000000D02*
X144000000Y-60000000D01*
X131500000Y-61000000D02*
X143000000Y-61000000D01*
X130500000Y-62000000D02*
X131500000Y-61000000D01*
%TO.N,SWDCLK*%
X130500000Y-60000000D02*
X130000000Y-60500000D01*
X142000000Y-59500000D02*
X141500000Y-60000000D01*
X141500000Y-60000000D02*
X130500000Y-60000000D01*
%TO.N,LED_STATUS*%
X122472534Y-61972534D02*
X115500000Y-55000000D01*
X115500000Y-55000000D02*
X112500000Y-55000000D01*
D17*
%TO.N,+3.3VA*%
X110500000Y-69500000D02*
X110500000Y-65500000D01*
%TD*%
%TA.AperFunction,Conductor*%
%TO.N,GND*%
G36*
X149410255Y-40329211D02*
G01*
X149786168Y-40363399D01*
X149797724Y-40365001D01*
X150168771Y-40434465D01*
X150180121Y-40437150D01*
X150542954Y-40541264D01*
X150554010Y-40545010D01*
X150905408Y-40682846D01*
X150916077Y-40687624D01*
X151252913Y-40857956D01*
X151263082Y-40863716D01*
X151469990Y-40994174D01*
X151582370Y-41065031D01*
X151591960Y-41071730D01*
X151796002Y-41229085D01*
X151890846Y-41302227D01*
X151899762Y-41309799D01*
X152097931Y-41494893D01*
X152175611Y-41567447D01*
X152183771Y-41575824D01*
X152205972Y-41600876D01*
X152434104Y-41858309D01*
X152441441Y-41867420D01*
X152664043Y-42172240D01*
X152670489Y-42182002D01*
X152863379Y-42506444D01*
X152868876Y-42516770D01*
X153030334Y-42857943D01*
X153034833Y-42868740D01*
X153163423Y-43223607D01*
X153166885Y-43234781D01*
X153261461Y-43600183D01*
X153263855Y-43611633D01*
X153323580Y-43984331D01*
X153324884Y-43995956D01*
X153349301Y-44373821D01*
X153349559Y-44381755D01*
X153369478Y-84334097D01*
X153369237Y-84338639D01*
X153367469Y-84345202D01*
X153367964Y-84354938D01*
X153367964Y-84354943D01*
X153369344Y-84382061D01*
X153369504Y-84388289D01*
X153369511Y-84400670D01*
X153369514Y-84405452D01*
X153369821Y-84407091D01*
X153369950Y-84409757D01*
X153371297Y-84776038D01*
X153370788Y-84787725D01*
X153336602Y-85163612D01*
X153334995Y-85175198D01*
X153265538Y-85546213D01*
X153262845Y-85557597D01*
X153158741Y-85920399D01*
X153154988Y-85931479D01*
X153017156Y-86282864D01*
X153012375Y-86293540D01*
X152842047Y-86630369D01*
X152836282Y-86640547D01*
X152634970Y-86959830D01*
X152628271Y-86969420D01*
X152397774Y-87268305D01*
X152390202Y-87277221D01*
X152132553Y-87553071D01*
X152124174Y-87561233D01*
X151841691Y-87811564D01*
X151832580Y-87818901D01*
X151527761Y-88041503D01*
X151517999Y-88047949D01*
X151193556Y-88240839D01*
X151183231Y-88246336D01*
X150842059Y-88407794D01*
X150831261Y-88412293D01*
X150476392Y-88540883D01*
X150465218Y-88544345D01*
X150099816Y-88638922D01*
X150088366Y-88641316D01*
X149715669Y-88701041D01*
X149704044Y-88702345D01*
X149326291Y-88726756D01*
X149318295Y-88727014D01*
X99370252Y-88727014D01*
X99365633Y-88726768D01*
X99359010Y-88724983D01*
X99349263Y-88725479D01*
X99322245Y-88726854D01*
X99315943Y-88727014D01*
X99298907Y-88727014D01*
X99297194Y-88727333D01*
X99294492Y-88727463D01*
X98928177Y-88728806D01*
X98916490Y-88728297D01*
X98540597Y-88694107D01*
X98529010Y-88692499D01*
X98158015Y-88623042D01*
X98146632Y-88620350D01*
X97783826Y-88516240D01*
X97772747Y-88512487D01*
X97421365Y-88374654D01*
X97410688Y-88369873D01*
X97073863Y-88199543D01*
X97063686Y-88193778D01*
X96744400Y-87992463D01*
X96734810Y-87985764D01*
X96435925Y-87755265D01*
X96427009Y-87747692D01*
X96151176Y-87490055D01*
X96143014Y-87481677D01*
X95892678Y-87199188D01*
X95885341Y-87190077D01*
X95867805Y-87166064D01*
X96630305Y-87166064D01*
X96638191Y-87177327D01*
X96879684Y-87372883D01*
X96884938Y-87376700D01*
X97204733Y-87584378D01*
X97210354Y-87587624D01*
X97550116Y-87760741D01*
X97556040Y-87763378D01*
X97912044Y-87900036D01*
X97918197Y-87902035D01*
X98286537Y-88000731D01*
X98292879Y-88002079D01*
X98669508Y-88061731D01*
X98675951Y-88062408D01*
X99056756Y-88082366D01*
X99063244Y-88082366D01*
X99444048Y-88062408D01*
X99450491Y-88061731D01*
X99827120Y-88002079D01*
X99833462Y-88000731D01*
X100201802Y-87902035D01*
X100207955Y-87900036D01*
X100563959Y-87763378D01*
X100569883Y-87760741D01*
X100909645Y-87587624D01*
X100915266Y-87584378D01*
X101235061Y-87376700D01*
X101240315Y-87372883D01*
X101481806Y-87177328D01*
X101489693Y-87166064D01*
X146630305Y-87166064D01*
X146638191Y-87177327D01*
X146879684Y-87372883D01*
X146884938Y-87376700D01*
X147204733Y-87584378D01*
X147210354Y-87587624D01*
X147550116Y-87760741D01*
X147556040Y-87763378D01*
X147912044Y-87900036D01*
X147918197Y-87902035D01*
X148286537Y-88000731D01*
X148292879Y-88002079D01*
X148669508Y-88061731D01*
X148675951Y-88062408D01*
X149056756Y-88082366D01*
X149063244Y-88082366D01*
X149444048Y-88062408D01*
X149450491Y-88061731D01*
X149827120Y-88002079D01*
X149833462Y-88000731D01*
X150201802Y-87902035D01*
X150207955Y-87900036D01*
X150563959Y-87763378D01*
X150569883Y-87760741D01*
X150909645Y-87587624D01*
X150915266Y-87584378D01*
X151235061Y-87376700D01*
X151240315Y-87372883D01*
X151481806Y-87177328D01*
X151489693Y-87166064D01*
X151483027Y-87154038D01*
X149071542Y-84742553D01*
X149060000Y-84735889D01*
X149048457Y-84742553D01*
X146636971Y-87154038D01*
X146630305Y-87166064D01*
X101489693Y-87166064D01*
X101483027Y-87154038D01*
X99071542Y-84742553D01*
X99060000Y-84735889D01*
X99048457Y-84742553D01*
X96636971Y-87154038D01*
X96630305Y-87166064D01*
X95867805Y-87166064D01*
X95662742Y-86885261D01*
X95656296Y-86875499D01*
X95610972Y-86799264D01*
X95463401Y-86551046D01*
X95457915Y-86540742D01*
X95296450Y-86199552D01*
X95291955Y-86188763D01*
X95198725Y-85931479D01*
X95163363Y-85833889D01*
X95159904Y-85822724D01*
X95065328Y-85457323D01*
X95062934Y-85445873D01*
X95017700Y-85163612D01*
X95003207Y-85073173D01*
X95001904Y-85061554D01*
X94997531Y-84993886D01*
X94977452Y-84683168D01*
X94977195Y-84675173D01*
X94977195Y-84380702D01*
X95355092Y-84380702D01*
X95375049Y-84761506D01*
X95375726Y-84767949D01*
X95435378Y-85144578D01*
X95436726Y-85150920D01*
X95535422Y-85519260D01*
X95537421Y-85525413D01*
X95674079Y-85881417D01*
X95676716Y-85887341D01*
X95849833Y-86227103D01*
X95853079Y-86232724D01*
X96060757Y-86552519D01*
X96064574Y-86557773D01*
X96260129Y-86799265D01*
X96271392Y-86807151D01*
X96283418Y-86800485D01*
X98694904Y-84389000D01*
X98701568Y-84377457D01*
X99418431Y-84377457D01*
X99425095Y-84389000D01*
X101836580Y-86800485D01*
X101848606Y-86807151D01*
X101859870Y-86799264D01*
X102055425Y-86557773D01*
X102059242Y-86552519D01*
X102266920Y-86232724D01*
X102270166Y-86227103D01*
X102443283Y-85887341D01*
X102445920Y-85881417D01*
X102582578Y-85525413D01*
X102584577Y-85519260D01*
X102683273Y-85150920D01*
X102684621Y-85144578D01*
X102744273Y-84767949D01*
X102744950Y-84761506D01*
X102764908Y-84380702D01*
X145355092Y-84380702D01*
X145375049Y-84761506D01*
X145375726Y-84767949D01*
X145435378Y-85144578D01*
X145436726Y-85150920D01*
X145535422Y-85519260D01*
X145537421Y-85525413D01*
X145674079Y-85881417D01*
X145676716Y-85887341D01*
X145849833Y-86227103D01*
X145853079Y-86232724D01*
X146060757Y-86552519D01*
X146064574Y-86557773D01*
X146260129Y-86799265D01*
X146271392Y-86807151D01*
X146283418Y-86800485D01*
X148694904Y-84389000D01*
X148701568Y-84377457D01*
X149418431Y-84377457D01*
X149425095Y-84389000D01*
X151836580Y-86800485D01*
X151848606Y-86807151D01*
X151859870Y-86799264D01*
X152055425Y-86557773D01*
X152059242Y-86552519D01*
X152266920Y-86232724D01*
X152270166Y-86227103D01*
X152443283Y-85887341D01*
X152445920Y-85881417D01*
X152582578Y-85525413D01*
X152584577Y-85519260D01*
X152683273Y-85150920D01*
X152684621Y-85144578D01*
X152744273Y-84767949D01*
X152744950Y-84761506D01*
X152764908Y-84380702D01*
X152764908Y-84374214D01*
X152744950Y-83993409D01*
X152744273Y-83986966D01*
X152684621Y-83610337D01*
X152683273Y-83603995D01*
X152584577Y-83235655D01*
X152582578Y-83229502D01*
X152445920Y-82873498D01*
X152443283Y-82867574D01*
X152270166Y-82527812D01*
X152266920Y-82522191D01*
X152059242Y-82202396D01*
X152055425Y-82197142D01*
X151859869Y-81955649D01*
X151848606Y-81947763D01*
X151836580Y-81954429D01*
X149425095Y-84365915D01*
X149418431Y-84377457D01*
X148701568Y-84377457D01*
X148694904Y-84365915D01*
X146283418Y-81954429D01*
X146271393Y-81947763D01*
X146260127Y-81955652D01*
X146064578Y-82197136D01*
X146060756Y-82202397D01*
X145853079Y-82522191D01*
X145849833Y-82527812D01*
X145676716Y-82867574D01*
X145674079Y-82873498D01*
X145537421Y-83229502D01*
X145535422Y-83235655D01*
X145436726Y-83603995D01*
X145435378Y-83610337D01*
X145375726Y-83986966D01*
X145375049Y-83993409D01*
X145355092Y-84374214D01*
X145355092Y-84380702D01*
X102764908Y-84380702D01*
X102764908Y-84374214D01*
X102744950Y-83993409D01*
X102744273Y-83986966D01*
X102684621Y-83610337D01*
X102683273Y-83603995D01*
X102584577Y-83235655D01*
X102582578Y-83229502D01*
X102445920Y-82873498D01*
X102443283Y-82867574D01*
X102270166Y-82527812D01*
X102266920Y-82522191D01*
X102059242Y-82202396D01*
X102055425Y-82197142D01*
X101859869Y-81955649D01*
X101848606Y-81947763D01*
X101836580Y-81954429D01*
X99425095Y-84365915D01*
X99418431Y-84377457D01*
X98701568Y-84377457D01*
X98694904Y-84365915D01*
X96283418Y-81954429D01*
X96271393Y-81947763D01*
X96260127Y-81955652D01*
X96064578Y-82197136D01*
X96060756Y-82202397D01*
X95853079Y-82522191D01*
X95849833Y-82527812D01*
X95676716Y-82867574D01*
X95674079Y-82873498D01*
X95537421Y-83229502D01*
X95535422Y-83235655D01*
X95436726Y-83603995D01*
X95435378Y-83610337D01*
X95375726Y-83986966D01*
X95375049Y-83993409D01*
X95355092Y-84374214D01*
X95355092Y-84380702D01*
X94977195Y-84380702D01*
X94977195Y-81588851D01*
X96630305Y-81588851D01*
X96636971Y-81600876D01*
X99048457Y-84012362D01*
X99060000Y-84019026D01*
X99071542Y-84012362D01*
X101483027Y-81600876D01*
X101489692Y-81588851D01*
X146630305Y-81588851D01*
X146636971Y-81600876D01*
X149048457Y-84012362D01*
X149060000Y-84019026D01*
X149071542Y-84012362D01*
X151483027Y-81600876D01*
X151489693Y-81588850D01*
X151481807Y-81577587D01*
X151240315Y-81382032D01*
X151235061Y-81378215D01*
X150915266Y-81170537D01*
X150909645Y-81167291D01*
X150569883Y-80994174D01*
X150563959Y-80991537D01*
X150207955Y-80854879D01*
X150201802Y-80852880D01*
X149833462Y-80754184D01*
X149827120Y-80752836D01*
X149450491Y-80693184D01*
X149444048Y-80692507D01*
X149063244Y-80672550D01*
X149056756Y-80672550D01*
X148675951Y-80692507D01*
X148669508Y-80693184D01*
X148292879Y-80752836D01*
X148286537Y-80754184D01*
X147918197Y-80852880D01*
X147912044Y-80854879D01*
X147556040Y-80991537D01*
X147550116Y-80994174D01*
X147210354Y-81167291D01*
X147204733Y-81170537D01*
X146884939Y-81378214D01*
X146879678Y-81382036D01*
X146638194Y-81577585D01*
X146630305Y-81588851D01*
X101489692Y-81588851D01*
X101489693Y-81588850D01*
X101481807Y-81577587D01*
X101240315Y-81382032D01*
X101235061Y-81378215D01*
X100915266Y-81170537D01*
X100909645Y-81167291D01*
X100569883Y-80994174D01*
X100563959Y-80991537D01*
X100207955Y-80854879D01*
X100201802Y-80852880D01*
X99833462Y-80754184D01*
X99827120Y-80752836D01*
X99450491Y-80693184D01*
X99444048Y-80692507D01*
X99063244Y-80672550D01*
X99056756Y-80672550D01*
X98675951Y-80692507D01*
X98669508Y-80693184D01*
X98292879Y-80752836D01*
X98286537Y-80754184D01*
X97918197Y-80852880D01*
X97912044Y-80854879D01*
X97556040Y-80991537D01*
X97550116Y-80994174D01*
X97210354Y-81167291D01*
X97204733Y-81170537D01*
X96884939Y-81378214D01*
X96879678Y-81382036D01*
X96638194Y-81577585D01*
X96630305Y-81588851D01*
X94977195Y-81588851D01*
X94977195Y-69500000D01*
X109394785Y-69500000D01*
X109413603Y-69703083D01*
X109415171Y-69708594D01*
X109415173Y-69708604D01*
X109467847Y-69893731D01*
X109467849Y-69893737D01*
X109469418Y-69899250D01*
X109560327Y-70081821D01*
X109563779Y-70086392D01*
X109679778Y-70240001D01*
X109679783Y-70240006D01*
X109683236Y-70244579D01*
X109687472Y-70248440D01*
X109687476Y-70248445D01*
X109789227Y-70341203D01*
X109833959Y-70381981D01*
X110007363Y-70489348D01*
X110197544Y-70563024D01*
X110398024Y-70600500D01*
X110596247Y-70600500D01*
X110601976Y-70600500D01*
X110802456Y-70563024D01*
X110992637Y-70489348D01*
X111166041Y-70381981D01*
X111316764Y-70244579D01*
X111439673Y-70081821D01*
X111530582Y-69899250D01*
X111586397Y-69703083D01*
X111605215Y-69500000D01*
X111586397Y-69296917D01*
X111530582Y-69100750D01*
X111439673Y-68918179D01*
X111325546Y-68767050D01*
X111306928Y-68731729D01*
X111300500Y-68692323D01*
X111300500Y-66307677D01*
X111306928Y-66268271D01*
X111325546Y-66232950D01*
X111408720Y-66122809D01*
X111439673Y-66081821D01*
X111530582Y-65899250D01*
X111586397Y-65703083D01*
X111605215Y-65500000D01*
X111586397Y-65296917D01*
X111577035Y-65264015D01*
X111532152Y-65106268D01*
X111530582Y-65100750D01*
X111439673Y-64918179D01*
X111352416Y-64802632D01*
X111320221Y-64759998D01*
X111320217Y-64759994D01*
X111316764Y-64755421D01*
X111312527Y-64751558D01*
X111312523Y-64751554D01*
X111170275Y-64621879D01*
X111170276Y-64621879D01*
X111166041Y-64618019D01*
X111161171Y-64615004D01*
X111161169Y-64615002D01*
X110997511Y-64513670D01*
X110997512Y-64513670D01*
X110992637Y-64510652D01*
X110965141Y-64500000D01*
X110807803Y-64439047D01*
X110807798Y-64439045D01*
X110802456Y-64436976D01*
X110729344Y-64423309D01*
X110607605Y-64400552D01*
X110607602Y-64400551D01*
X110601976Y-64399500D01*
X110398024Y-64399500D01*
X110392398Y-64400551D01*
X110392394Y-64400552D01*
X110203181Y-64435922D01*
X110203178Y-64435922D01*
X110197544Y-64436976D01*
X110192203Y-64439044D01*
X110192196Y-64439047D01*
X110012705Y-64508582D01*
X110012700Y-64508584D01*
X110007363Y-64510652D01*
X110002491Y-64513668D01*
X110002488Y-64513670D01*
X109838830Y-64615002D01*
X109838822Y-64615007D01*
X109833959Y-64618019D01*
X109829728Y-64621875D01*
X109829724Y-64621879D01*
X109687476Y-64751554D01*
X109687466Y-64751564D01*
X109683236Y-64755421D01*
X109679787Y-64759987D01*
X109679778Y-64759998D01*
X109563779Y-64913607D01*
X109563776Y-64913611D01*
X109560327Y-64918179D01*
X109557774Y-64923304D01*
X109557772Y-64923309D01*
X109481398Y-65076690D01*
X109469418Y-65100750D01*
X109467850Y-65106258D01*
X109467847Y-65106268D01*
X109415173Y-65291395D01*
X109415170Y-65291406D01*
X109413603Y-65296917D01*
X109413073Y-65302627D01*
X109413073Y-65302632D01*
X109398289Y-65462181D01*
X109394785Y-65500000D01*
X109395314Y-65505709D01*
X109405593Y-65616647D01*
X109413603Y-65703083D01*
X109415171Y-65708594D01*
X109415173Y-65708604D01*
X109467847Y-65893731D01*
X109467849Y-65893737D01*
X109469418Y-65899250D01*
X109471976Y-65904387D01*
X109554407Y-66069933D01*
X109560327Y-66081821D01*
X109581561Y-66109939D01*
X109674454Y-66232950D01*
X109693072Y-66268271D01*
X109699500Y-66307677D01*
X109699500Y-68692323D01*
X109693072Y-68731729D01*
X109674454Y-68767050D01*
X109563779Y-68913607D01*
X109563776Y-68913611D01*
X109560327Y-68918179D01*
X109557774Y-68923304D01*
X109557772Y-68923309D01*
X109471976Y-69095612D01*
X109469418Y-69100750D01*
X109467850Y-69106258D01*
X109467847Y-69106268D01*
X109415173Y-69291395D01*
X109415170Y-69291406D01*
X109413603Y-69296917D01*
X109394785Y-69500000D01*
X94977195Y-69500000D01*
X94977195Y-65024336D01*
X97559500Y-65024336D01*
X97559501Y-65027466D01*
X97559820Y-65030598D01*
X97559821Y-65030599D01*
X97569312Y-65123519D01*
X97569313Y-65123527D01*
X97570001Y-65130255D01*
X97572129Y-65136677D01*
X97572130Y-65136681D01*
X97594134Y-65203083D01*
X97625186Y-65296792D01*
X97628977Y-65302938D01*
X97713497Y-65439969D01*
X97713500Y-65439973D01*
X97717288Y-65446114D01*
X97841344Y-65570170D01*
X97847485Y-65573958D01*
X97847488Y-65573960D01*
X97867644Y-65586392D01*
X97990666Y-65662272D01*
X98157203Y-65717457D01*
X98259991Y-65727958D01*
X99860008Y-65727957D01*
X99962797Y-65717457D01*
X100129334Y-65662272D01*
X100278656Y-65570170D01*
X100402712Y-65446114D01*
X100494814Y-65296792D01*
X100549999Y-65130255D01*
X100560500Y-65027467D01*
X100560499Y-63727450D01*
X100549999Y-63624661D01*
X100494814Y-63458124D01*
X100402712Y-63308802D01*
X100278656Y-63184746D01*
X100272515Y-63180958D01*
X100272511Y-63180955D01*
X100129334Y-63092644D01*
X100129811Y-63091869D01*
X100089557Y-63059562D01*
X100065816Y-63005608D01*
X100069671Y-62946787D01*
X100100251Y-62896393D01*
X100244284Y-62752360D01*
X100251215Y-62744101D01*
X100380498Y-62559466D01*
X100385886Y-62550134D01*
X100481143Y-62345855D01*
X100484831Y-62335721D01*
X100536943Y-62141238D01*
X100537311Y-62130009D01*
X100526369Y-62127458D01*
X97593631Y-62127458D01*
X97582688Y-62130009D01*
X97583056Y-62141238D01*
X97635168Y-62335721D01*
X97638856Y-62345855D01*
X97734110Y-62550125D01*
X97739508Y-62559475D01*
X97868784Y-62744100D01*
X97875719Y-62752365D01*
X98019748Y-62896394D01*
X98050327Y-62946786D01*
X98054184Y-63005604D01*
X98030446Y-63059558D01*
X97990188Y-63091870D01*
X97990666Y-63092644D01*
X97847488Y-63180955D01*
X97847480Y-63180961D01*
X97841344Y-63184746D01*
X97836242Y-63189847D01*
X97836238Y-63189851D01*
X97722393Y-63303696D01*
X97722389Y-63303700D01*
X97717288Y-63308802D01*
X97713503Y-63314938D01*
X97713497Y-63314946D01*
X97635912Y-63440734D01*
X97625186Y-63458124D01*
X97622915Y-63464975D01*
X97622914Y-63464979D01*
X97572202Y-63618019D01*
X97570001Y-63624661D01*
X97569313Y-63631391D01*
X97569312Y-63631398D01*
X97559819Y-63724317D01*
X97559818Y-63724335D01*
X97559500Y-63727449D01*
X97559500Y-63730596D01*
X97559500Y-63730597D01*
X97559500Y-65024317D01*
X97559500Y-65024336D01*
X94977195Y-65024336D01*
X94977195Y-61624906D01*
X97582688Y-61624906D01*
X97593631Y-61627458D01*
X98793674Y-61627458D01*
X98806549Y-61624007D01*
X98810000Y-61611132D01*
X99310000Y-61611132D01*
X99313450Y-61624007D01*
X99326326Y-61627458D01*
X100526369Y-61627458D01*
X100537311Y-61624906D01*
X100536943Y-61613677D01*
X100484831Y-61419194D01*
X100481143Y-61409060D01*
X100385889Y-61204790D01*
X100380491Y-61195440D01*
X100251215Y-61010815D01*
X100244280Y-61002550D01*
X100084907Y-60843177D01*
X100076642Y-60836242D01*
X99892017Y-60706966D01*
X99882667Y-60701568D01*
X99678397Y-60606314D01*
X99668263Y-60602626D01*
X99450553Y-60544291D01*
X99439922Y-60542416D01*
X99327178Y-60532552D01*
X99313734Y-60535125D01*
X99310000Y-60548293D01*
X99310000Y-61611132D01*
X98810000Y-61611132D01*
X98810000Y-60548293D01*
X98806265Y-60535125D01*
X98792821Y-60532552D01*
X98680077Y-60542416D01*
X98669446Y-60544291D01*
X98451736Y-60602626D01*
X98441602Y-60606314D01*
X98237332Y-60701568D01*
X98227982Y-60706966D01*
X98043357Y-60836242D01*
X98035092Y-60843177D01*
X97875721Y-61002548D01*
X97868784Y-61010814D01*
X97739501Y-61195449D01*
X97734113Y-61204781D01*
X97638856Y-61409060D01*
X97635168Y-61419194D01*
X97583056Y-61613677D01*
X97582688Y-61624906D01*
X94977195Y-61624906D01*
X94977195Y-55000000D01*
X111394785Y-55000000D01*
X111413603Y-55203083D01*
X111415171Y-55208594D01*
X111415173Y-55208604D01*
X111467847Y-55393731D01*
X111467849Y-55393737D01*
X111469418Y-55399250D01*
X111560327Y-55581821D01*
X111563779Y-55586392D01*
X111679778Y-55740001D01*
X111679783Y-55740006D01*
X111683236Y-55744579D01*
X111687472Y-55748440D01*
X111687476Y-55748445D01*
X111789227Y-55841203D01*
X111833959Y-55881981D01*
X112007363Y-55989348D01*
X112197544Y-56063024D01*
X112398024Y-56100500D01*
X112596247Y-56100500D01*
X112601976Y-56100500D01*
X112802456Y-56063024D01*
X112992637Y-55989348D01*
X113166041Y-55881981D01*
X113316764Y-55744579D01*
X113319674Y-55740725D01*
X113360898Y-55711065D01*
X113410983Y-55700500D01*
X115158481Y-55700500D01*
X115205934Y-55709939D01*
X115246162Y-55736819D01*
X122575209Y-63065866D01*
X122606794Y-63119612D01*
X122636735Y-63224843D01*
X122636737Y-63224849D01*
X122638306Y-63230362D01*
X122710756Y-63375862D01*
X122723564Y-63438004D01*
X122703957Y-63498347D01*
X122657068Y-63541092D01*
X122595173Y-63555047D01*
X122534479Y-63536559D01*
X122492637Y-63510652D01*
X122460874Y-63498347D01*
X122307803Y-63439047D01*
X122307798Y-63439045D01*
X122302456Y-63436976D01*
X122296818Y-63435922D01*
X122107605Y-63400552D01*
X122107602Y-63400551D01*
X122101976Y-63399500D01*
X121898024Y-63399500D01*
X121892398Y-63400551D01*
X121892394Y-63400552D01*
X121703181Y-63435922D01*
X121703178Y-63435922D01*
X121697544Y-63436976D01*
X121692203Y-63439044D01*
X121692196Y-63439047D01*
X121512705Y-63508582D01*
X121512700Y-63508584D01*
X121507363Y-63510652D01*
X121502494Y-63513667D01*
X121502488Y-63513670D01*
X121338830Y-63615002D01*
X121338822Y-63615007D01*
X121333959Y-63618019D01*
X121329728Y-63621875D01*
X121329724Y-63621879D01*
X121187476Y-63751554D01*
X121187466Y-63751564D01*
X121183236Y-63755421D01*
X121179787Y-63759987D01*
X121179778Y-63759998D01*
X121063779Y-63913607D01*
X121063776Y-63913611D01*
X121060327Y-63918179D01*
X121057774Y-63923304D01*
X121057772Y-63923309D01*
X121014281Y-64010652D01*
X120969418Y-64100750D01*
X120967850Y-64106258D01*
X120967847Y-64106268D01*
X120915173Y-64291395D01*
X120915170Y-64291406D01*
X120913603Y-64296917D01*
X120913073Y-64302627D01*
X120913073Y-64302632D01*
X120900625Y-64436976D01*
X120894785Y-64500000D01*
X120895314Y-64505709D01*
X120906078Y-64621879D01*
X120913603Y-64703083D01*
X120915171Y-64708594D01*
X120915173Y-64708604D01*
X120967847Y-64893731D01*
X120967849Y-64893737D01*
X120969418Y-64899250D01*
X121060327Y-65081821D01*
X121080522Y-65108564D01*
X121179778Y-65240001D01*
X121179783Y-65240006D01*
X121183236Y-65244579D01*
X121187472Y-65248440D01*
X121187476Y-65248445D01*
X121246917Y-65302632D01*
X121333959Y-65381981D01*
X121338829Y-65384996D01*
X121338830Y-65384997D01*
X121502485Y-65486328D01*
X121502487Y-65486329D01*
X121507363Y-65489348D01*
X121508482Y-65489781D01*
X121557504Y-65534475D01*
X121576076Y-65599750D01*
X121557504Y-65665025D01*
X121508482Y-65709718D01*
X121507363Y-65710152D01*
X121502495Y-65713165D01*
X121502485Y-65713171D01*
X121338830Y-65814502D01*
X121338822Y-65814507D01*
X121333959Y-65817519D01*
X121329728Y-65821375D01*
X121329724Y-65821379D01*
X121187476Y-65951054D01*
X121187466Y-65951064D01*
X121183236Y-65954921D01*
X121179787Y-65959487D01*
X121179778Y-65959498D01*
X121063779Y-66113107D01*
X121063776Y-66113111D01*
X121060327Y-66117679D01*
X121057774Y-66122804D01*
X121057772Y-66122809D01*
X120971976Y-66295112D01*
X120969418Y-66300250D01*
X120967850Y-66305758D01*
X120967847Y-66305768D01*
X120915173Y-66490895D01*
X120915170Y-66490906D01*
X120913603Y-66496417D01*
X120913073Y-66502127D01*
X120913073Y-66502132D01*
X120895314Y-66693791D01*
X120894785Y-66699500D01*
X120913603Y-66902583D01*
X120915171Y-66908094D01*
X120915173Y-66908104D01*
X120967847Y-67093231D01*
X120967849Y-67093237D01*
X120969418Y-67098750D01*
X121060327Y-67281321D01*
X121063779Y-67285892D01*
X121179778Y-67439501D01*
X121179783Y-67439506D01*
X121183236Y-67444079D01*
X121187472Y-67447940D01*
X121187476Y-67447945D01*
X121261718Y-67515625D01*
X121333959Y-67581481D01*
X121507363Y-67688848D01*
X121697544Y-67762524D01*
X121898024Y-67800000D01*
X122096247Y-67800000D01*
X122101976Y-67800000D01*
X122302456Y-67762524D01*
X122492637Y-67688848D01*
X122666041Y-67581481D01*
X122711964Y-67539615D01*
X122750710Y-67515625D01*
X122795504Y-67507252D01*
X140168327Y-67507252D01*
X140175813Y-67507478D01*
X140186168Y-67508104D01*
X140208253Y-67509440D01*
X140262332Y-67525578D01*
X140303659Y-67564012D01*
X140323672Y-67616781D01*
X140318225Y-67672954D01*
X140288447Y-67720895D01*
X132246162Y-75763181D01*
X132205934Y-75790061D01*
X132158481Y-75799500D01*
X118910983Y-75799500D01*
X118860898Y-75788935D01*
X118819674Y-75759274D01*
X118816764Y-75755421D01*
X118666041Y-75618019D01*
X118661171Y-75615004D01*
X118661169Y-75615002D01*
X118497511Y-75513670D01*
X118497512Y-75513670D01*
X118492637Y-75510652D01*
X118487294Y-75508582D01*
X118307803Y-75439047D01*
X118307798Y-75439045D01*
X118302456Y-75436976D01*
X118296818Y-75435922D01*
X118107605Y-75400552D01*
X118107602Y-75400551D01*
X118101976Y-75399500D01*
X117898024Y-75399500D01*
X117892398Y-75400551D01*
X117892394Y-75400552D01*
X117703181Y-75435922D01*
X117703178Y-75435922D01*
X117697544Y-75436976D01*
X117692203Y-75439044D01*
X117692196Y-75439047D01*
X117512705Y-75508582D01*
X117512700Y-75508584D01*
X117507363Y-75510652D01*
X117502491Y-75513668D01*
X117502488Y-75513670D01*
X117338830Y-75615002D01*
X117338822Y-75615007D01*
X117333959Y-75618019D01*
X117329728Y-75621875D01*
X117329724Y-75621879D01*
X117187476Y-75751554D01*
X117187471Y-75751560D01*
X117183236Y-75755421D01*
X117179787Y-75759987D01*
X117179778Y-75759998D01*
X117063779Y-75913607D01*
X117063776Y-75913611D01*
X117060327Y-75918179D01*
X117057774Y-75923304D01*
X117057772Y-75923309D01*
X116971976Y-76095612D01*
X116969418Y-76100750D01*
X116967850Y-76106258D01*
X116967847Y-76106268D01*
X116915173Y-76291395D01*
X116915170Y-76291406D01*
X116913603Y-76296917D01*
X116894785Y-76500000D01*
X116913603Y-76703083D01*
X116915171Y-76708594D01*
X116915173Y-76708604D01*
X116967847Y-76893731D01*
X116967849Y-76893737D01*
X116969418Y-76899250D01*
X116971976Y-76904387D01*
X117052841Y-77066788D01*
X117060327Y-77081821D01*
X117063779Y-77086392D01*
X117179778Y-77240001D01*
X117179783Y-77240006D01*
X117183236Y-77244579D01*
X117187472Y-77248440D01*
X117187476Y-77248445D01*
X117289227Y-77341203D01*
X117333959Y-77381981D01*
X117507363Y-77489348D01*
X117697544Y-77563024D01*
X117898024Y-77600500D01*
X118096247Y-77600500D01*
X118101976Y-77600500D01*
X118302456Y-77563024D01*
X118492637Y-77489348D01*
X118666041Y-77381981D01*
X118816764Y-77244579D01*
X118819674Y-77240725D01*
X118860898Y-77211065D01*
X118910983Y-77200500D01*
X132475079Y-77200500D01*
X132482566Y-77200725D01*
X132542606Y-77204358D01*
X132601782Y-77193513D01*
X132609181Y-77192387D01*
X132668872Y-77185140D01*
X132678332Y-77181551D01*
X132699959Y-77175522D01*
X132709932Y-77173695D01*
X132764808Y-77148996D01*
X132771673Y-77146152D01*
X132827930Y-77124818D01*
X132836264Y-77119064D01*
X132855821Y-77108034D01*
X132865057Y-77103878D01*
X132912413Y-77066775D01*
X132918420Y-77062355D01*
X132967929Y-77028183D01*
X133007822Y-76983151D01*
X133012924Y-76977731D01*
X142860646Y-67130009D01*
X147582688Y-67130009D01*
X147583056Y-67141238D01*
X147635168Y-67335721D01*
X147638856Y-67345855D01*
X147734110Y-67550125D01*
X147739508Y-67559475D01*
X147868784Y-67744100D01*
X147875719Y-67752365D01*
X148035092Y-67911738D01*
X148043357Y-67918673D01*
X148227982Y-68047949D01*
X148237332Y-68053347D01*
X148441602Y-68148601D01*
X148451736Y-68152289D01*
X148669446Y-68210624D01*
X148680077Y-68212499D01*
X148792821Y-68222363D01*
X148806265Y-68219790D01*
X148810000Y-68206623D01*
X149310000Y-68206623D01*
X149313734Y-68219790D01*
X149327178Y-68222363D01*
X149439922Y-68212499D01*
X149450553Y-68210624D01*
X149668263Y-68152289D01*
X149678397Y-68148601D01*
X149882667Y-68053347D01*
X149892017Y-68047949D01*
X150076642Y-67918673D01*
X150084907Y-67911738D01*
X150244278Y-67752367D01*
X150251215Y-67744101D01*
X150380498Y-67559466D01*
X150385886Y-67550134D01*
X150481143Y-67345855D01*
X150484831Y-67335721D01*
X150536943Y-67141238D01*
X150537311Y-67130009D01*
X150526369Y-67127458D01*
X149326326Y-67127458D01*
X149313450Y-67130908D01*
X149310000Y-67143784D01*
X149310000Y-68206623D01*
X148810000Y-68206623D01*
X148810000Y-67143784D01*
X148806549Y-67130908D01*
X148793674Y-67127458D01*
X147593631Y-67127458D01*
X147582688Y-67130009D01*
X142860646Y-67130009D01*
X143853837Y-66136818D01*
X143894065Y-66109939D01*
X143941518Y-66100500D01*
X144096247Y-66100500D01*
X144101976Y-66100500D01*
X144302456Y-66063024D01*
X144492637Y-65989348D01*
X144666041Y-65881981D01*
X144816764Y-65744579D01*
X144939673Y-65581821D01*
X145030582Y-65399250D01*
X145086397Y-65203083D01*
X145102960Y-65024336D01*
X147559500Y-65024336D01*
X147559501Y-65027466D01*
X147559820Y-65030598D01*
X147559821Y-65030599D01*
X147569312Y-65123519D01*
X147569313Y-65123527D01*
X147570001Y-65130255D01*
X147572129Y-65136677D01*
X147572130Y-65136681D01*
X147594134Y-65203083D01*
X147625186Y-65296792D01*
X147628977Y-65302938D01*
X147713497Y-65439969D01*
X147713500Y-65439973D01*
X147717288Y-65446114D01*
X147841344Y-65570170D01*
X147847485Y-65573958D01*
X147847488Y-65573960D01*
X147990666Y-65662272D01*
X147990187Y-65663047D01*
X148030438Y-65695348D01*
X148054182Y-65749303D01*
X148050329Y-65808125D01*
X148019749Y-65858521D01*
X147875716Y-66002554D01*
X147868784Y-66010814D01*
X147739501Y-66195449D01*
X147734113Y-66204781D01*
X147638856Y-66409060D01*
X147635168Y-66419194D01*
X147583056Y-66613677D01*
X147582688Y-66624906D01*
X147593631Y-66627458D01*
X150526369Y-66627458D01*
X150537311Y-66624906D01*
X150536943Y-66613677D01*
X150484831Y-66419194D01*
X150481143Y-66409060D01*
X150385889Y-66204790D01*
X150380491Y-66195440D01*
X150251215Y-66010815D01*
X150244280Y-66002550D01*
X150100251Y-65858521D01*
X150069670Y-65808124D01*
X150065817Y-65749299D01*
X150089564Y-65695344D01*
X150129812Y-65663048D01*
X150129334Y-65662272D01*
X150230699Y-65599750D01*
X150278656Y-65570170D01*
X150402712Y-65446114D01*
X150494814Y-65296792D01*
X150549999Y-65130255D01*
X150560500Y-65027467D01*
X150560499Y-63727450D01*
X150549999Y-63624661D01*
X150494814Y-63458124D01*
X150402712Y-63308802D01*
X150278656Y-63184746D01*
X150272515Y-63180958D01*
X150272511Y-63180955D01*
X150135480Y-63096435D01*
X150129334Y-63092644D01*
X150048523Y-63065866D01*
X149969225Y-63039589D01*
X149969224Y-63039588D01*
X149962797Y-63037459D01*
X149956064Y-63036771D01*
X149956059Y-63036770D01*
X149863140Y-63027277D01*
X149863123Y-63027276D01*
X149860009Y-63026958D01*
X149856860Y-63026958D01*
X148263140Y-63026958D01*
X148263120Y-63026958D01*
X148259992Y-63026959D01*
X148256860Y-63027278D01*
X148256858Y-63027279D01*
X148163938Y-63036770D01*
X148163928Y-63036771D01*
X148157203Y-63037459D01*
X148150781Y-63039586D01*
X148150776Y-63039588D01*
X147997521Y-63090372D01*
X147997517Y-63090373D01*
X147990666Y-63092644D01*
X147984522Y-63096433D01*
X147984519Y-63096435D01*
X147847488Y-63180955D01*
X147847480Y-63180961D01*
X147841344Y-63184746D01*
X147836242Y-63189847D01*
X147836238Y-63189851D01*
X147722393Y-63303696D01*
X147722389Y-63303700D01*
X147717288Y-63308802D01*
X147713503Y-63314938D01*
X147713497Y-63314946D01*
X147635912Y-63440734D01*
X147625186Y-63458124D01*
X147622915Y-63464975D01*
X147622914Y-63464979D01*
X147572202Y-63618019D01*
X147570001Y-63624661D01*
X147569313Y-63631391D01*
X147569312Y-63631398D01*
X147559819Y-63724317D01*
X147559818Y-63724335D01*
X147559500Y-63727449D01*
X147559500Y-63730596D01*
X147559500Y-63730597D01*
X147559500Y-65024317D01*
X147559500Y-65024336D01*
X145102960Y-65024336D01*
X145105215Y-65000000D01*
X145086397Y-64796917D01*
X145061269Y-64708604D01*
X145032152Y-64606268D01*
X145030582Y-64600750D01*
X144939673Y-64418179D01*
X144852416Y-64302632D01*
X144820221Y-64259998D01*
X144820217Y-64259994D01*
X144816764Y-64255421D01*
X144812527Y-64251558D01*
X144812523Y-64251554D01*
X144670275Y-64121879D01*
X144670276Y-64121879D01*
X144666041Y-64118019D01*
X144661171Y-64115004D01*
X144661169Y-64115002D01*
X144497511Y-64013670D01*
X144497512Y-64013670D01*
X144492637Y-64010652D01*
X144487294Y-64008582D01*
X144307803Y-63939047D01*
X144307798Y-63939045D01*
X144302456Y-63936976D01*
X144229344Y-63923309D01*
X144107605Y-63900552D01*
X144107602Y-63900551D01*
X144101976Y-63899500D01*
X143898024Y-63899500D01*
X143892398Y-63900551D01*
X143892394Y-63900552D01*
X143703181Y-63935922D01*
X143703178Y-63935922D01*
X143697544Y-63936976D01*
X143692203Y-63939044D01*
X143692196Y-63939047D01*
X143512705Y-64008582D01*
X143512700Y-64008584D01*
X143507363Y-64010652D01*
X143502491Y-64013668D01*
X143502488Y-64013670D01*
X143338830Y-64115002D01*
X143338822Y-64115007D01*
X143333959Y-64118019D01*
X143329728Y-64121875D01*
X143329724Y-64121879D01*
X143187476Y-64251554D01*
X143187466Y-64251564D01*
X143183236Y-64255421D01*
X143179787Y-64259987D01*
X143179778Y-64259998D01*
X143098954Y-64367028D01*
X143055271Y-64403301D01*
X143000000Y-64416301D01*
X142944728Y-64403301D01*
X142901046Y-64367028D01*
X142869101Y-64324726D01*
X142846926Y-64276526D01*
X142846926Y-64223471D01*
X142869099Y-64175275D01*
X142939673Y-64081821D01*
X143030582Y-63899250D01*
X143086397Y-63703083D01*
X143105215Y-63500000D01*
X143086397Y-63296917D01*
X143030582Y-63100750D01*
X142939673Y-62918179D01*
X142869612Y-62825403D01*
X142820221Y-62759998D01*
X142820217Y-62759994D01*
X142816764Y-62755421D01*
X142812527Y-62751558D01*
X142812523Y-62751554D01*
X142698520Y-62647627D01*
X142666041Y-62618019D01*
X142661171Y-62615004D01*
X142661169Y-62615002D01*
X142497511Y-62513670D01*
X142497512Y-62513670D01*
X142492637Y-62510652D01*
X142487294Y-62508582D01*
X142307803Y-62439047D01*
X142307798Y-62439045D01*
X142302456Y-62436976D01*
X142296818Y-62435922D01*
X142107605Y-62400552D01*
X142107602Y-62400551D01*
X142101976Y-62399500D01*
X141898024Y-62399500D01*
X141892398Y-62400551D01*
X141892394Y-62400552D01*
X141703181Y-62435922D01*
X141703178Y-62435922D01*
X141697544Y-62436976D01*
X141692203Y-62439044D01*
X141692196Y-62439047D01*
X141512705Y-62508582D01*
X141512700Y-62508584D01*
X141507363Y-62510652D01*
X141502491Y-62513668D01*
X141502488Y-62513670D01*
X141338830Y-62615002D01*
X141338822Y-62615007D01*
X141333959Y-62618019D01*
X141329728Y-62621875D01*
X141329724Y-62621879D01*
X141187476Y-62751554D01*
X141187466Y-62751564D01*
X141183236Y-62755421D01*
X141179787Y-62759987D01*
X141179778Y-62759998D01*
X141063779Y-62913607D01*
X141063776Y-62913611D01*
X141060327Y-62918179D01*
X141057774Y-62923304D01*
X141057772Y-62923309D01*
X140973454Y-63092644D01*
X140969418Y-63100750D01*
X140967850Y-63106258D01*
X140967847Y-63106268D01*
X140915173Y-63291395D01*
X140915170Y-63291406D01*
X140913603Y-63296917D01*
X140913073Y-63302627D01*
X140913073Y-63302632D01*
X140907341Y-63364494D01*
X140896117Y-63405746D01*
X140871551Y-63440734D01*
X140599105Y-63713181D01*
X140558877Y-63740061D01*
X140511424Y-63749500D01*
X124603423Y-63749500D01*
X124538145Y-63730927D01*
X124492423Y-63680772D01*
X124479952Y-63614059D01*
X124504469Y-63550773D01*
X124536330Y-63508582D01*
X124608561Y-63412933D01*
X124699470Y-63230362D01*
X124755285Y-63034195D01*
X124774103Y-62831112D01*
X124755285Y-62628029D01*
X124751578Y-62615002D01*
X124701040Y-62437380D01*
X124699470Y-62431862D01*
X124608561Y-62249291D01*
X124560064Y-62185071D01*
X124489109Y-62091110D01*
X124489105Y-62091106D01*
X124485652Y-62086533D01*
X124481415Y-62082670D01*
X124481411Y-62082666D01*
X124367408Y-61978739D01*
X124334929Y-61949131D01*
X124330059Y-61946116D01*
X124330057Y-61946114D01*
X124166399Y-61844782D01*
X124166400Y-61844782D01*
X124161525Y-61841764D01*
X124156182Y-61839694D01*
X123976691Y-61770159D01*
X123976686Y-61770157D01*
X123971344Y-61768088D01*
X123965706Y-61767034D01*
X123776493Y-61731664D01*
X123776490Y-61731663D01*
X123770864Y-61730612D01*
X123566912Y-61730612D01*
X123561286Y-61731663D01*
X123561282Y-61731664D01*
X123372062Y-61767035D01*
X123372056Y-61767036D01*
X123366432Y-61768088D01*
X123361091Y-61770156D01*
X123355574Y-61771727D01*
X123355243Y-61770565D01*
X123317449Y-61777328D01*
X123271027Y-61767535D01*
X123231681Y-61741024D01*
X122937903Y-61447246D01*
X122937901Y-61447243D01*
X121990658Y-60500000D01*
X128894785Y-60500000D01*
X128913603Y-60703083D01*
X128915171Y-60708594D01*
X128915173Y-60708604D01*
X128967847Y-60893731D01*
X128967849Y-60893737D01*
X128969418Y-60899250D01*
X128971976Y-60904387D01*
X129049935Y-61060952D01*
X129060327Y-61081821D01*
X129063779Y-61086392D01*
X129179778Y-61240001D01*
X129179783Y-61240006D01*
X129183236Y-61244579D01*
X129187472Y-61248440D01*
X129187476Y-61248445D01*
X129289227Y-61341203D01*
X129333959Y-61381981D01*
X129424650Y-61438134D01*
X129466754Y-61481551D01*
X129483313Y-61539722D01*
X129472392Y-61589629D01*
X129474045Y-61590270D01*
X129471972Y-61595620D01*
X129469418Y-61600750D01*
X129467850Y-61606260D01*
X129467848Y-61606266D01*
X129415173Y-61791395D01*
X129415170Y-61791406D01*
X129413603Y-61796917D01*
X129413073Y-61802627D01*
X129413073Y-61802632D01*
X129399141Y-61952991D01*
X129394785Y-62000000D01*
X129413603Y-62203083D01*
X129415171Y-62208594D01*
X129415173Y-62208604D01*
X129467847Y-62393731D01*
X129467849Y-62393737D01*
X129469418Y-62399250D01*
X129560327Y-62581821D01*
X129563779Y-62586392D01*
X129679778Y-62740001D01*
X129679783Y-62740006D01*
X129683236Y-62744579D01*
X129687472Y-62748440D01*
X129687476Y-62748445D01*
X129771896Y-62825403D01*
X129833959Y-62881981D01*
X130007363Y-62989348D01*
X130197544Y-63063024D01*
X130398024Y-63100500D01*
X130596247Y-63100500D01*
X130601976Y-63100500D01*
X130802456Y-63063024D01*
X130992637Y-62989348D01*
X131166041Y-62881981D01*
X131316764Y-62744579D01*
X131439673Y-62581821D01*
X131530582Y-62399250D01*
X131586397Y-62203083D01*
X131605215Y-62000000D01*
X131600870Y-61953114D01*
X131607710Y-61899565D01*
X131636656Y-61853999D01*
X131753840Y-61736815D01*
X131794065Y-61709939D01*
X131841518Y-61700500D01*
X142975079Y-61700500D01*
X142982566Y-61700725D01*
X143042606Y-61704358D01*
X143101782Y-61693513D01*
X143109181Y-61692387D01*
X143168872Y-61685140D01*
X143178332Y-61681551D01*
X143199959Y-61675522D01*
X143209932Y-61673695D01*
X143264808Y-61648996D01*
X143271673Y-61646152D01*
X143327930Y-61624818D01*
X143336264Y-61619064D01*
X143355821Y-61608034D01*
X143365057Y-61603878D01*
X143412413Y-61566775D01*
X143418420Y-61562355D01*
X143467929Y-61528183D01*
X143507822Y-61483151D01*
X143512925Y-61477730D01*
X143853836Y-61136818D01*
X143894064Y-61109939D01*
X143941517Y-61100500D01*
X144096247Y-61100500D01*
X144101976Y-61100500D01*
X144302456Y-61063024D01*
X144492637Y-60989348D01*
X144666041Y-60881981D01*
X144816764Y-60744579D01*
X144939673Y-60581821D01*
X145030582Y-60399250D01*
X145086397Y-60203083D01*
X145105215Y-60000000D01*
X145086397Y-59796917D01*
X145030582Y-59600750D01*
X144939673Y-59418179D01*
X144869270Y-59324950D01*
X144820221Y-59259998D01*
X144820217Y-59259994D01*
X144816764Y-59255421D01*
X144812527Y-59251558D01*
X144812523Y-59251554D01*
X144670275Y-59121879D01*
X144670276Y-59121879D01*
X144666041Y-59118019D01*
X144661171Y-59115004D01*
X144661169Y-59115002D01*
X144497511Y-59013670D01*
X144497512Y-59013670D01*
X144492637Y-59010652D01*
X144487294Y-59008582D01*
X144307803Y-58939047D01*
X144307798Y-58939045D01*
X144302456Y-58936976D01*
X144229344Y-58923309D01*
X144107605Y-58900552D01*
X144107602Y-58900551D01*
X144101976Y-58899500D01*
X143898024Y-58899500D01*
X143892398Y-58900551D01*
X143892394Y-58900552D01*
X143703181Y-58935922D01*
X143703178Y-58935922D01*
X143697544Y-58936976D01*
X143692203Y-58939044D01*
X143692196Y-58939047D01*
X143512705Y-59008582D01*
X143512700Y-59008584D01*
X143507363Y-59010652D01*
X143502491Y-59013668D01*
X143502488Y-59013670D01*
X143338830Y-59115002D01*
X143338822Y-59115007D01*
X143333959Y-59118019D01*
X143329728Y-59121875D01*
X143329724Y-59121879D01*
X143244965Y-59199147D01*
X143189817Y-59228216D01*
X143127493Y-59226776D01*
X143073746Y-59195192D01*
X143042161Y-59141445D01*
X143032152Y-59106268D01*
X143030582Y-59100750D01*
X142939673Y-58918179D01*
X142891176Y-58853959D01*
X142820221Y-58759998D01*
X142820217Y-58759994D01*
X142816764Y-58755421D01*
X142812527Y-58751558D01*
X142812523Y-58751554D01*
X142670275Y-58621879D01*
X142670276Y-58621879D01*
X142666041Y-58618019D01*
X142661171Y-58615004D01*
X142661169Y-58615002D01*
X142497511Y-58513670D01*
X142497512Y-58513670D01*
X142492637Y-58510652D01*
X142487294Y-58508582D01*
X142307803Y-58439047D01*
X142307798Y-58439045D01*
X142302456Y-58436976D01*
X142296818Y-58435922D01*
X142107605Y-58400552D01*
X142107602Y-58400551D01*
X142101976Y-58399500D01*
X141898024Y-58399500D01*
X141892398Y-58400551D01*
X141892394Y-58400552D01*
X141703181Y-58435922D01*
X141703178Y-58435922D01*
X141697544Y-58436976D01*
X141692203Y-58439044D01*
X141692196Y-58439047D01*
X141512705Y-58508582D01*
X141512700Y-58508584D01*
X141507363Y-58510652D01*
X141502491Y-58513668D01*
X141502488Y-58513670D01*
X141338830Y-58615002D01*
X141338822Y-58615007D01*
X141333959Y-58618019D01*
X141329728Y-58621875D01*
X141329724Y-58621879D01*
X141187476Y-58751554D01*
X141187466Y-58751564D01*
X141183236Y-58755421D01*
X141179787Y-58759987D01*
X141179778Y-58759998D01*
X141063779Y-58913607D01*
X141063776Y-58913611D01*
X141060327Y-58918179D01*
X141057774Y-58923304D01*
X141057772Y-58923309D01*
X141014281Y-59010652D01*
X140969418Y-59100750D01*
X140967850Y-59106258D01*
X140967847Y-59106268D01*
X140938494Y-59209435D01*
X140913394Y-59256177D01*
X140871055Y-59288150D01*
X140819228Y-59299500D01*
X130524921Y-59299500D01*
X130517433Y-59299274D01*
X130464881Y-59296094D01*
X130464873Y-59296094D01*
X130457394Y-59295642D01*
X130450018Y-59296993D01*
X130450011Y-59296994D01*
X130398228Y-59306483D01*
X130390828Y-59307610D01*
X130338569Y-59313956D01*
X130338565Y-59313956D01*
X130331128Y-59314860D01*
X130324119Y-59317517D01*
X130324114Y-59317519D01*
X130321643Y-59318456D01*
X130300053Y-59324474D01*
X130297452Y-59324950D01*
X130297438Y-59324954D01*
X130290069Y-59326305D01*
X130283232Y-59329381D01*
X130283232Y-59329382D01*
X130235226Y-59350987D01*
X130228310Y-59353851D01*
X130179082Y-59372521D01*
X130179070Y-59372526D01*
X130172070Y-59375182D01*
X130165902Y-59379438D01*
X130159259Y-59382926D01*
X130158921Y-59382282D01*
X130135086Y-59393887D01*
X130098199Y-59399500D01*
X129898024Y-59399500D01*
X129892398Y-59400551D01*
X129892394Y-59400552D01*
X129703181Y-59435922D01*
X129703178Y-59435922D01*
X129697544Y-59436976D01*
X129692203Y-59439044D01*
X129692196Y-59439047D01*
X129512705Y-59508582D01*
X129512700Y-59508584D01*
X129507363Y-59510652D01*
X129502491Y-59513668D01*
X129502488Y-59513670D01*
X129338830Y-59615002D01*
X129338822Y-59615007D01*
X129333959Y-59618019D01*
X129329728Y-59621875D01*
X129329724Y-59621879D01*
X129187476Y-59751554D01*
X129187466Y-59751564D01*
X129183236Y-59755421D01*
X129179787Y-59759987D01*
X129179778Y-59759998D01*
X129063779Y-59913607D01*
X129063776Y-59913611D01*
X129060327Y-59918179D01*
X129057774Y-59923304D01*
X129057772Y-59923309D01*
X128971976Y-60095612D01*
X128969418Y-60100750D01*
X128967850Y-60106258D01*
X128967847Y-60106268D01*
X128915173Y-60291395D01*
X128915170Y-60291406D01*
X128913603Y-60296917D01*
X128913073Y-60302627D01*
X128913073Y-60302632D01*
X128895314Y-60494291D01*
X128894785Y-60500000D01*
X121990658Y-60500000D01*
X116012939Y-54522282D01*
X116007822Y-54516847D01*
X115967929Y-54471817D01*
X115918410Y-54437636D01*
X115912404Y-54433216D01*
X115870961Y-54400747D01*
X115870958Y-54400745D01*
X115865057Y-54396122D01*
X115858219Y-54393044D01*
X115858210Y-54393039D01*
X115855810Y-54391959D01*
X115836268Y-54380937D01*
X115834107Y-54379445D01*
X115834102Y-54379442D01*
X115827930Y-54375182D01*
X115771702Y-54353857D01*
X115764784Y-54350991D01*
X115716772Y-54329383D01*
X115716769Y-54329382D01*
X115709932Y-54326305D01*
X115702560Y-54324954D01*
X115702551Y-54324951D01*
X115699952Y-54324475D01*
X115678340Y-54318450D01*
X115675891Y-54317521D01*
X115675885Y-54317519D01*
X115668872Y-54314860D01*
X115661430Y-54313956D01*
X115661425Y-54313955D01*
X115609171Y-54307610D01*
X115601771Y-54306483D01*
X115549987Y-54296994D01*
X115549982Y-54296993D01*
X115542606Y-54295642D01*
X115535126Y-54296094D01*
X115535118Y-54296094D01*
X115482567Y-54299274D01*
X115475079Y-54299500D01*
X113410983Y-54299500D01*
X113360898Y-54288935D01*
X113319674Y-54259274D01*
X113316764Y-54255421D01*
X113166041Y-54118019D01*
X113161171Y-54115004D01*
X113161169Y-54115002D01*
X112997511Y-54013670D01*
X112997512Y-54013670D01*
X112992637Y-54010652D01*
X112987294Y-54008582D01*
X112807803Y-53939047D01*
X112807798Y-53939045D01*
X112802456Y-53936976D01*
X112796818Y-53935922D01*
X112607605Y-53900552D01*
X112607602Y-53900551D01*
X112601976Y-53899500D01*
X112398024Y-53899500D01*
X112392398Y-53900551D01*
X112392394Y-53900552D01*
X112203181Y-53935922D01*
X112203178Y-53935922D01*
X112197544Y-53936976D01*
X112192203Y-53939044D01*
X112192196Y-53939047D01*
X112012705Y-54008582D01*
X112012700Y-54008584D01*
X112007363Y-54010652D01*
X112002491Y-54013668D01*
X112002488Y-54013670D01*
X111838830Y-54115002D01*
X111838822Y-54115007D01*
X111833959Y-54118019D01*
X111829728Y-54121875D01*
X111829724Y-54121879D01*
X111687476Y-54251554D01*
X111687471Y-54251560D01*
X111683236Y-54255421D01*
X111679787Y-54259987D01*
X111679778Y-54259998D01*
X111563779Y-54413607D01*
X111563776Y-54413611D01*
X111560327Y-54418179D01*
X111557774Y-54423304D01*
X111557772Y-54423309D01*
X111508490Y-54522282D01*
X111469418Y-54600750D01*
X111467850Y-54606258D01*
X111467847Y-54606268D01*
X111415173Y-54791395D01*
X111415170Y-54791406D01*
X111413603Y-54796917D01*
X111394785Y-55000000D01*
X94977195Y-55000000D01*
X94977195Y-47166064D01*
X96630305Y-47166064D01*
X96638191Y-47177327D01*
X96879684Y-47372883D01*
X96884938Y-47376700D01*
X97204733Y-47584378D01*
X97210354Y-47587624D01*
X97550116Y-47760741D01*
X97556040Y-47763378D01*
X97912044Y-47900036D01*
X97918197Y-47902035D01*
X98286537Y-48000731D01*
X98292879Y-48002079D01*
X98669508Y-48061731D01*
X98675951Y-48062408D01*
X99056756Y-48082366D01*
X99063244Y-48082366D01*
X99444048Y-48062408D01*
X99450491Y-48061731D01*
X99827120Y-48002079D01*
X99833462Y-48000731D01*
X100201802Y-47902035D01*
X100207955Y-47900036D01*
X100563959Y-47763378D01*
X100569883Y-47760741D01*
X100909645Y-47587624D01*
X100915266Y-47584378D01*
X101045196Y-47500000D01*
X129394785Y-47500000D01*
X129395314Y-47505709D01*
X129402603Y-47584378D01*
X129413603Y-47703083D01*
X129415171Y-47708594D01*
X129415173Y-47708604D01*
X129467847Y-47893731D01*
X129467849Y-47893737D01*
X129469418Y-47899250D01*
X129471976Y-47904387D01*
X129550660Y-48062408D01*
X129560327Y-48081821D01*
X129563779Y-48086392D01*
X129679778Y-48240001D01*
X129679783Y-48240006D01*
X129683236Y-48244579D01*
X129687472Y-48248440D01*
X129687476Y-48248445D01*
X129789227Y-48341203D01*
X129833959Y-48381981D01*
X130007363Y-48489348D01*
X130197544Y-48563024D01*
X130398024Y-48600500D01*
X130596247Y-48600500D01*
X130601976Y-48600500D01*
X130802456Y-48563024D01*
X130992637Y-48489348D01*
X131166041Y-48381981D01*
X131316764Y-48244579D01*
X131439673Y-48081821D01*
X131530582Y-47899250D01*
X131586397Y-47703083D01*
X131605215Y-47500000D01*
X131586397Y-47296917D01*
X131549166Y-47166064D01*
X146630305Y-47166064D01*
X146638191Y-47177327D01*
X146879684Y-47372883D01*
X146884938Y-47376700D01*
X147204733Y-47584378D01*
X147210354Y-47587624D01*
X147550116Y-47760741D01*
X147556040Y-47763378D01*
X147912044Y-47900036D01*
X147918197Y-47902035D01*
X148286537Y-48000731D01*
X148292879Y-48002079D01*
X148669508Y-48061731D01*
X148675951Y-48062408D01*
X149056756Y-48082366D01*
X149063244Y-48082366D01*
X149444048Y-48062408D01*
X149450491Y-48061731D01*
X149827120Y-48002079D01*
X149833462Y-48000731D01*
X150201802Y-47902035D01*
X150207955Y-47900036D01*
X150563959Y-47763378D01*
X150569883Y-47760741D01*
X150909645Y-47587624D01*
X150915266Y-47584378D01*
X151235061Y-47376700D01*
X151240315Y-47372883D01*
X151481806Y-47177328D01*
X151489693Y-47166064D01*
X151483027Y-47154038D01*
X149071542Y-44742553D01*
X149060000Y-44735889D01*
X149048457Y-44742553D01*
X146636971Y-47154038D01*
X146630305Y-47166064D01*
X131549166Y-47166064D01*
X131530582Y-47100750D01*
X131439673Y-46918179D01*
X131325546Y-46767050D01*
X131306928Y-46731729D01*
X131300500Y-46692323D01*
X131300500Y-45382940D01*
X131309939Y-45335487D01*
X131336819Y-45295259D01*
X131495259Y-45136819D01*
X131535487Y-45109939D01*
X131582940Y-45100500D01*
X131596247Y-45100500D01*
X131601976Y-45100500D01*
X131802456Y-45063024D01*
X131992637Y-44989348D01*
X132166041Y-44881981D01*
X132316764Y-44744579D01*
X132383442Y-44656282D01*
X132429181Y-44619010D01*
X132486974Y-44607097D01*
X132543729Y-44623244D01*
X132586595Y-44663797D01*
X132605864Y-44719570D01*
X132611283Y-44778046D01*
X132613603Y-44803083D01*
X132615171Y-44808594D01*
X132615173Y-44808604D01*
X132667847Y-44993731D01*
X132667849Y-44993737D01*
X132669418Y-44999250D01*
X132760327Y-45181821D01*
X132763779Y-45186392D01*
X132879778Y-45340001D01*
X132879783Y-45340006D01*
X132883236Y-45344579D01*
X132887472Y-45348440D01*
X132887476Y-45348445D01*
X132963456Y-45417709D01*
X133033959Y-45481981D01*
X133207363Y-45589348D01*
X133397544Y-45663024D01*
X133598024Y-45700500D01*
X133796247Y-45700500D01*
X133801976Y-45700500D01*
X134002456Y-45663024D01*
X134192637Y-45589348D01*
X134366041Y-45481981D01*
X134516764Y-45344579D01*
X134639673Y-45181821D01*
X134730582Y-44999250D01*
X134786397Y-44803083D01*
X134786632Y-44800540D01*
X134809049Y-44749773D01*
X134852731Y-44713500D01*
X134908003Y-44700500D01*
X137491997Y-44700500D01*
X137547269Y-44713500D01*
X137590951Y-44749773D01*
X137613367Y-44800540D01*
X137613603Y-44803083D01*
X137615172Y-44808598D01*
X137615173Y-44808602D01*
X137667847Y-44993731D01*
X137667849Y-44993737D01*
X137669418Y-44999250D01*
X137760327Y-45181821D01*
X137763779Y-45186392D01*
X137879778Y-45340001D01*
X137879783Y-45340006D01*
X137883236Y-45344579D01*
X137887472Y-45348440D01*
X137887476Y-45348445D01*
X137963456Y-45417709D01*
X138033959Y-45481981D01*
X138207363Y-45589348D01*
X138397544Y-45663024D01*
X138598024Y-45700500D01*
X138796247Y-45700500D01*
X138801976Y-45700500D01*
X139002456Y-45663024D01*
X139192637Y-45589348D01*
X139366041Y-45481981D01*
X139516764Y-45344579D01*
X139639673Y-45181821D01*
X139730582Y-44999250D01*
X139786397Y-44803083D01*
X139805215Y-44600000D01*
X139786397Y-44396917D01*
X139784144Y-44389000D01*
X139781783Y-44380702D01*
X145355092Y-44380702D01*
X145375049Y-44761506D01*
X145375726Y-44767949D01*
X145435378Y-45144578D01*
X145436726Y-45150920D01*
X145535422Y-45519260D01*
X145537421Y-45525413D01*
X145674079Y-45881417D01*
X145676716Y-45887341D01*
X145849833Y-46227103D01*
X145853079Y-46232724D01*
X146060757Y-46552519D01*
X146064574Y-46557773D01*
X146260129Y-46799265D01*
X146271392Y-46807151D01*
X146283418Y-46800485D01*
X148694904Y-44389000D01*
X148701568Y-44377458D01*
X148701567Y-44377457D01*
X149418431Y-44377457D01*
X149425095Y-44389000D01*
X151836580Y-46800485D01*
X151848606Y-46807151D01*
X151859870Y-46799264D01*
X152055425Y-46557773D01*
X152059242Y-46552519D01*
X152266920Y-46232724D01*
X152270166Y-46227103D01*
X152443283Y-45887341D01*
X152445920Y-45881417D01*
X152582578Y-45525413D01*
X152584577Y-45519260D01*
X152683273Y-45150920D01*
X152684621Y-45144578D01*
X152744273Y-44767949D01*
X152744950Y-44761506D01*
X152764908Y-44380702D01*
X152764908Y-44374214D01*
X152744950Y-43993409D01*
X152744273Y-43986966D01*
X152684621Y-43610337D01*
X152683273Y-43603995D01*
X152584577Y-43235655D01*
X152582578Y-43229502D01*
X152445920Y-42873498D01*
X152443283Y-42867574D01*
X152270166Y-42527812D01*
X152266920Y-42522191D01*
X152059242Y-42202396D01*
X152055425Y-42197142D01*
X151859869Y-41955649D01*
X151848606Y-41947763D01*
X151836580Y-41954429D01*
X149425095Y-44365915D01*
X149418431Y-44377457D01*
X148701567Y-44377457D01*
X148694904Y-44365915D01*
X146283418Y-41954429D01*
X146271393Y-41947763D01*
X146260127Y-41955652D01*
X146064578Y-42197136D01*
X146060756Y-42202397D01*
X145853079Y-42522191D01*
X145849833Y-42527812D01*
X145676716Y-42867574D01*
X145674079Y-42873498D01*
X145537421Y-43229502D01*
X145535422Y-43235655D01*
X145436726Y-43603995D01*
X145435378Y-43610337D01*
X145375726Y-43986966D01*
X145375049Y-43993409D01*
X145355092Y-44374214D01*
X145355092Y-44380702D01*
X139781783Y-44380702D01*
X139732152Y-44206268D01*
X139730582Y-44200750D01*
X139639673Y-44018179D01*
X139569920Y-43925811D01*
X139520221Y-43859998D01*
X139520217Y-43859994D01*
X139516764Y-43855421D01*
X139512527Y-43851558D01*
X139512523Y-43851554D01*
X139370275Y-43721879D01*
X139370276Y-43721879D01*
X139366041Y-43718019D01*
X139361171Y-43715004D01*
X139361169Y-43715002D01*
X139197511Y-43613670D01*
X139197512Y-43613670D01*
X139192637Y-43610652D01*
X139180257Y-43605856D01*
X139007803Y-43539047D01*
X139007798Y-43539045D01*
X139002456Y-43536976D01*
X138996818Y-43535922D01*
X138807605Y-43500552D01*
X138807602Y-43500551D01*
X138801976Y-43499500D01*
X138796247Y-43499500D01*
X138782940Y-43499500D01*
X138735487Y-43490061D01*
X138695259Y-43463181D01*
X138507190Y-43275112D01*
X138507189Y-43275111D01*
X138502262Y-43270184D01*
X138469847Y-43249816D01*
X138458509Y-43241771D01*
X138442635Y-43229112D01*
X138428587Y-43217909D01*
X138422318Y-43214890D01*
X138422315Y-43214888D01*
X138394093Y-43201296D01*
X138381927Y-43194572D01*
X138355414Y-43177913D01*
X138355412Y-43177912D01*
X138349522Y-43174211D01*
X138313393Y-43161568D01*
X138300554Y-43156250D01*
X138272336Y-43142661D01*
X138272329Y-43142658D01*
X138266061Y-43139640D01*
X138259276Y-43138091D01*
X138259267Y-43138088D01*
X138228735Y-43131119D01*
X138215382Y-43127273D01*
X138188935Y-43118019D01*
X138185823Y-43116930D01*
X138185821Y-43116929D01*
X138179255Y-43114632D01*
X138172338Y-43113852D01*
X138172336Y-43113852D01*
X138141218Y-43110345D01*
X138127518Y-43108017D01*
X138096988Y-43101050D01*
X138096983Y-43101049D01*
X138090194Y-43099500D01*
X138044954Y-43099500D01*
X134490194Y-43099500D01*
X134309805Y-43099500D01*
X134272481Y-43108018D01*
X134258786Y-43110345D01*
X134227666Y-43113852D01*
X134227665Y-43113852D01*
X134220745Y-43114632D01*
X134214173Y-43116931D01*
X134214166Y-43116933D01*
X134184608Y-43127275D01*
X134171257Y-43131122D01*
X134140723Y-43138092D01*
X134140719Y-43138093D01*
X134133939Y-43139641D01*
X134127674Y-43142657D01*
X134127665Y-43142661D01*
X134099457Y-43156245D01*
X134086619Y-43161563D01*
X134057047Y-43171911D01*
X134057037Y-43171915D01*
X134050478Y-43174211D01*
X134044589Y-43177910D01*
X134044585Y-43177913D01*
X134018064Y-43194577D01*
X134005898Y-43201301D01*
X133977689Y-43214886D01*
X133977685Y-43214888D01*
X133971413Y-43217909D01*
X133965967Y-43222251D01*
X133965965Y-43222253D01*
X133941487Y-43241773D01*
X133930152Y-43249816D01*
X133903635Y-43266478D01*
X133903631Y-43266480D01*
X133897738Y-43270184D01*
X133892817Y-43275104D01*
X133892813Y-43275108D01*
X133865755Y-43302165D01*
X133865745Y-43302177D01*
X133704738Y-43463183D01*
X133664513Y-43490061D01*
X133617060Y-43499500D01*
X133598024Y-43499500D01*
X133592398Y-43500551D01*
X133592394Y-43500552D01*
X133403181Y-43535922D01*
X133403178Y-43535922D01*
X133397544Y-43536976D01*
X133392203Y-43539044D01*
X133392196Y-43539047D01*
X133212705Y-43608582D01*
X133212700Y-43608584D01*
X133207363Y-43610652D01*
X133202491Y-43613668D01*
X133202488Y-43613670D01*
X133038830Y-43715002D01*
X133038822Y-43715007D01*
X133033959Y-43718019D01*
X133029728Y-43721875D01*
X133029724Y-43721879D01*
X132887476Y-43851554D01*
X132887466Y-43851564D01*
X132883236Y-43855421D01*
X132879787Y-43859987D01*
X132879778Y-43859998D01*
X132816560Y-43943714D01*
X132770817Y-43980990D01*
X132713024Y-43992902D01*
X132656268Y-43976754D01*
X132613403Y-43936201D01*
X132594135Y-43880428D01*
X132591818Y-43855421D01*
X132586397Y-43796917D01*
X132530582Y-43600750D01*
X132439673Y-43418179D01*
X132378526Y-43337207D01*
X132320221Y-43259998D01*
X132320217Y-43259994D01*
X132316764Y-43255421D01*
X132312527Y-43251558D01*
X132312523Y-43251554D01*
X132178714Y-43129572D01*
X132166041Y-43118019D01*
X132161171Y-43115004D01*
X132161169Y-43115002D01*
X132031550Y-43034746D01*
X131992637Y-43010652D01*
X131987294Y-43008582D01*
X131807803Y-42939047D01*
X131807798Y-42939045D01*
X131802456Y-42936976D01*
X131796818Y-42935922D01*
X131607605Y-42900552D01*
X131607602Y-42900551D01*
X131601976Y-42899500D01*
X131398024Y-42899500D01*
X131392398Y-42900551D01*
X131392394Y-42900552D01*
X131203181Y-42935922D01*
X131203178Y-42935922D01*
X131197544Y-42936976D01*
X131192203Y-42939044D01*
X131192196Y-42939047D01*
X131012705Y-43008582D01*
X131012700Y-43008584D01*
X131007363Y-43010652D01*
X131002491Y-43013668D01*
X131002488Y-43013670D01*
X130838830Y-43115002D01*
X130838822Y-43115007D01*
X130833959Y-43118019D01*
X130829728Y-43121875D01*
X130829724Y-43121879D01*
X130687476Y-43251554D01*
X130687466Y-43251564D01*
X130683236Y-43255421D01*
X130679787Y-43259987D01*
X130679778Y-43259998D01*
X130563779Y-43413607D01*
X130563776Y-43413611D01*
X130560327Y-43418179D01*
X130557774Y-43423304D01*
X130557772Y-43423309D01*
X130492303Y-43554790D01*
X130469418Y-43600750D01*
X130467850Y-43606258D01*
X130467847Y-43606268D01*
X130415173Y-43791395D01*
X130415170Y-43791406D01*
X130413603Y-43796917D01*
X130413073Y-43802627D01*
X130413073Y-43802632D01*
X130401659Y-43925811D01*
X130390435Y-43967063D01*
X130365869Y-44002051D01*
X129997737Y-44370184D01*
X129997735Y-44370186D01*
X129997736Y-44370186D01*
X129870184Y-44497738D01*
X129866479Y-44503632D01*
X129866479Y-44503634D01*
X129849816Y-44530152D01*
X129841773Y-44541487D01*
X129822253Y-44565965D01*
X129822251Y-44565967D01*
X129817909Y-44571413D01*
X129814889Y-44577682D01*
X129814883Y-44577693D01*
X129801299Y-44605900D01*
X129794577Y-44618064D01*
X129786329Y-44631192D01*
X129774211Y-44650478D01*
X129771915Y-44657037D01*
X129771911Y-44657047D01*
X129761565Y-44686613D01*
X129756247Y-44699451D01*
X129742660Y-44727666D01*
X129742657Y-44727671D01*
X129739640Y-44733939D01*
X129738092Y-44740717D01*
X129738089Y-44740728D01*
X129731118Y-44771268D01*
X129727272Y-44784619D01*
X129714632Y-44820745D01*
X129713852Y-44827663D01*
X129713852Y-44827665D01*
X129710345Y-44858781D01*
X129708017Y-44872479D01*
X129701050Y-44903008D01*
X129701048Y-44903020D01*
X129699500Y-44909806D01*
X129699500Y-44916772D01*
X129699500Y-46692323D01*
X129693072Y-46731729D01*
X129674454Y-46767050D01*
X129563779Y-46913607D01*
X129563776Y-46913611D01*
X129560327Y-46918179D01*
X129557774Y-46923304D01*
X129557772Y-46923309D01*
X129471976Y-47095612D01*
X129469418Y-47100750D01*
X129467850Y-47106258D01*
X129467847Y-47106268D01*
X129415173Y-47291395D01*
X129415170Y-47291406D01*
X129413603Y-47296917D01*
X129394785Y-47500000D01*
X101045196Y-47500000D01*
X101235061Y-47376700D01*
X101240315Y-47372883D01*
X101481806Y-47177328D01*
X101489693Y-47166064D01*
X101483027Y-47154038D01*
X99071542Y-44742553D01*
X99060000Y-44735889D01*
X99048457Y-44742553D01*
X96636971Y-47154038D01*
X96630305Y-47166064D01*
X94977195Y-47166064D01*
X94977195Y-44727772D01*
X94977440Y-44723146D01*
X94979227Y-44716520D01*
X94977354Y-44679750D01*
X94977195Y-44673446D01*
X94977195Y-44661314D01*
X94977195Y-44656421D01*
X94976879Y-44654733D01*
X94976750Y-44652030D01*
X94975828Y-44381755D01*
X94975824Y-44380702D01*
X95355092Y-44380702D01*
X95375049Y-44761506D01*
X95375726Y-44767949D01*
X95435378Y-45144578D01*
X95436726Y-45150920D01*
X95535422Y-45519260D01*
X95537421Y-45525413D01*
X95674079Y-45881417D01*
X95676716Y-45887341D01*
X95849833Y-46227103D01*
X95853079Y-46232724D01*
X96060757Y-46552519D01*
X96064574Y-46557773D01*
X96260129Y-46799265D01*
X96271392Y-46807151D01*
X96283418Y-46800485D01*
X98694904Y-44389000D01*
X98701568Y-44377457D01*
X99418431Y-44377457D01*
X99425095Y-44389000D01*
X101836580Y-46800485D01*
X101848606Y-46807151D01*
X101859870Y-46799264D01*
X102055425Y-46557773D01*
X102059242Y-46552519D01*
X102266920Y-46232724D01*
X102270166Y-46227103D01*
X102443283Y-45887341D01*
X102445920Y-45881417D01*
X102582578Y-45525413D01*
X102584577Y-45519260D01*
X102676999Y-45174336D01*
X122709500Y-45174336D01*
X122709501Y-45177466D01*
X122709820Y-45180598D01*
X122709821Y-45180599D01*
X122719312Y-45273519D01*
X122719313Y-45273527D01*
X122720001Y-45280255D01*
X122722129Y-45286677D01*
X122722130Y-45286681D01*
X122765549Y-45417709D01*
X122775186Y-45446792D01*
X122778977Y-45452938D01*
X122863497Y-45589969D01*
X122863500Y-45589973D01*
X122867288Y-45596114D01*
X122991344Y-45720170D01*
X122997485Y-45723958D01*
X122997488Y-45723960D01*
X123054558Y-45759160D01*
X123140666Y-45812272D01*
X123307203Y-45867457D01*
X123409991Y-45877958D01*
X124710008Y-45877957D01*
X124812797Y-45867457D01*
X124979334Y-45812272D01*
X125128656Y-45720170D01*
X125252712Y-45596114D01*
X125344814Y-45446792D01*
X125345590Y-45447270D01*
X125377886Y-45407022D01*
X125431841Y-45383275D01*
X125490666Y-45387128D01*
X125541063Y-45417709D01*
X125685090Y-45561736D01*
X125693356Y-45568673D01*
X125877991Y-45697956D01*
X125887323Y-45703344D01*
X126091602Y-45798601D01*
X126101736Y-45802289D01*
X126296219Y-45854401D01*
X126307448Y-45854769D01*
X126310000Y-45843827D01*
X126810000Y-45843827D01*
X126812551Y-45854769D01*
X126823780Y-45854401D01*
X127018263Y-45802289D01*
X127028397Y-45798601D01*
X127232667Y-45703347D01*
X127242017Y-45697949D01*
X127426642Y-45568673D01*
X127434907Y-45561738D01*
X127594280Y-45402365D01*
X127601215Y-45394100D01*
X127730491Y-45209475D01*
X127735889Y-45200125D01*
X127831143Y-44995855D01*
X127834831Y-44985721D01*
X127893166Y-44768011D01*
X127895041Y-44757380D01*
X127904905Y-44644636D01*
X127902332Y-44631192D01*
X127889165Y-44627458D01*
X126826326Y-44627458D01*
X126813450Y-44630908D01*
X126810000Y-44643784D01*
X126810000Y-45843827D01*
X126310000Y-45843827D01*
X126310000Y-44111132D01*
X126810000Y-44111132D01*
X126813450Y-44124007D01*
X126826326Y-44127458D01*
X127889165Y-44127458D01*
X127902332Y-44123723D01*
X127904905Y-44110279D01*
X127895041Y-43997535D01*
X127893166Y-43986904D01*
X127834831Y-43769194D01*
X127831143Y-43759060D01*
X127735889Y-43554790D01*
X127730491Y-43545440D01*
X127601215Y-43360815D01*
X127594280Y-43352550D01*
X127434909Y-43193179D01*
X127426643Y-43186242D01*
X127242008Y-43056959D01*
X127232676Y-43051571D01*
X127028397Y-42956314D01*
X127018263Y-42952626D01*
X126823780Y-42900514D01*
X126812551Y-42900146D01*
X126810000Y-42911089D01*
X126810000Y-44111132D01*
X126310000Y-44111132D01*
X126310000Y-42911089D01*
X126307448Y-42900146D01*
X126296219Y-42900514D01*
X126101736Y-42952626D01*
X126091602Y-42956314D01*
X125887332Y-43051568D01*
X125877982Y-43056966D01*
X125693357Y-43186242D01*
X125685098Y-43193172D01*
X125541063Y-43337207D01*
X125490667Y-43367787D01*
X125431845Y-43371640D01*
X125377890Y-43347896D01*
X125345589Y-43307645D01*
X125344814Y-43308124D01*
X125256502Y-43164946D01*
X125256500Y-43164943D01*
X125252712Y-43158802D01*
X125128656Y-43034746D01*
X125122515Y-43030958D01*
X125122511Y-43030955D01*
X124985480Y-42946435D01*
X124979334Y-42942644D01*
X124962229Y-42936976D01*
X124819225Y-42889589D01*
X124819224Y-42889588D01*
X124812797Y-42887459D01*
X124806064Y-42886771D01*
X124806059Y-42886770D01*
X124713140Y-42877277D01*
X124713123Y-42877276D01*
X124710009Y-42876958D01*
X124706860Y-42876958D01*
X123413140Y-42876958D01*
X123413120Y-42876958D01*
X123409992Y-42876959D01*
X123406860Y-42877278D01*
X123406858Y-42877279D01*
X123313938Y-42886770D01*
X123313928Y-42886771D01*
X123307203Y-42887459D01*
X123300781Y-42889586D01*
X123300776Y-42889588D01*
X123147521Y-42940372D01*
X123147517Y-42940373D01*
X123140666Y-42942644D01*
X123134522Y-42946433D01*
X123134519Y-42946435D01*
X122997488Y-43030955D01*
X122997480Y-43030961D01*
X122991344Y-43034746D01*
X122986242Y-43039847D01*
X122986238Y-43039851D01*
X122872393Y-43153696D01*
X122872389Y-43153700D01*
X122867288Y-43158802D01*
X122863503Y-43164938D01*
X122863497Y-43164946D01*
X122778977Y-43301977D01*
X122775186Y-43308124D01*
X122772915Y-43314975D01*
X122772914Y-43314979D01*
X122740232Y-43413607D01*
X122720001Y-43474661D01*
X122719313Y-43481391D01*
X122719312Y-43481398D01*
X122709819Y-43574317D01*
X122709818Y-43574335D01*
X122709500Y-43577449D01*
X122709500Y-43580596D01*
X122709500Y-43580597D01*
X122709500Y-45174317D01*
X122709500Y-45174336D01*
X102676999Y-45174336D01*
X102683273Y-45150920D01*
X102684621Y-45144578D01*
X102744273Y-44767949D01*
X102744950Y-44761506D01*
X102764908Y-44380702D01*
X102764908Y-44374214D01*
X102744950Y-43993409D01*
X102744273Y-43986966D01*
X102684621Y-43610337D01*
X102683273Y-43603995D01*
X102584577Y-43235655D01*
X102582578Y-43229502D01*
X102445920Y-42873498D01*
X102443283Y-42867574D01*
X102270166Y-42527812D01*
X102266920Y-42522191D01*
X102059242Y-42202396D01*
X102055425Y-42197142D01*
X101859869Y-41955649D01*
X101848606Y-41947763D01*
X101836580Y-41954429D01*
X99425095Y-44365915D01*
X99418431Y-44377457D01*
X98701568Y-44377457D01*
X98694904Y-44365915D01*
X96283418Y-41954429D01*
X96271393Y-41947763D01*
X96260127Y-41955652D01*
X96064578Y-42197136D01*
X96060756Y-42202397D01*
X95853079Y-42522191D01*
X95849833Y-42527812D01*
X95676716Y-42867574D01*
X95674079Y-42873498D01*
X95537421Y-43229502D01*
X95535422Y-43235655D01*
X95436726Y-43603995D01*
X95435378Y-43610337D01*
X95375726Y-43986966D01*
X95375049Y-43993409D01*
X95355092Y-44374214D01*
X95355092Y-44380702D01*
X94975824Y-44380702D01*
X94975493Y-44283521D01*
X94976011Y-44271771D01*
X94989252Y-44127458D01*
X95010693Y-43893767D01*
X95012317Y-43882152D01*
X95082666Y-43509121D01*
X95085391Y-43497683D01*
X95190767Y-43133014D01*
X95194556Y-43121908D01*
X95334024Y-42768843D01*
X95338843Y-42758158D01*
X95511145Y-42419890D01*
X95516959Y-42409702D01*
X95720530Y-42089302D01*
X95727281Y-42079713D01*
X95960304Y-41780036D01*
X95967943Y-41771119D01*
X96139737Y-41588851D01*
X96630305Y-41588851D01*
X96636971Y-41600876D01*
X99048457Y-44012362D01*
X99060000Y-44019026D01*
X99071542Y-44012362D01*
X101483027Y-41600876D01*
X101489692Y-41588851D01*
X146630305Y-41588851D01*
X146636971Y-41600876D01*
X149048457Y-44012362D01*
X149060000Y-44019026D01*
X149071542Y-44012362D01*
X151483027Y-41600876D01*
X151489693Y-41588850D01*
X151481807Y-41577587D01*
X151240315Y-41382032D01*
X151235061Y-41378215D01*
X150915266Y-41170537D01*
X150909645Y-41167291D01*
X150569883Y-40994174D01*
X150563959Y-40991537D01*
X150207955Y-40854879D01*
X150201802Y-40852880D01*
X149833462Y-40754184D01*
X149827120Y-40752836D01*
X149450491Y-40693184D01*
X149444048Y-40692507D01*
X149063244Y-40672550D01*
X149056756Y-40672550D01*
X148675951Y-40692507D01*
X148669508Y-40693184D01*
X148292879Y-40752836D01*
X148286537Y-40754184D01*
X147918197Y-40852880D01*
X147912044Y-40854879D01*
X147556040Y-40991537D01*
X147550116Y-40994174D01*
X147210354Y-41167291D01*
X147204733Y-41170537D01*
X146884939Y-41378214D01*
X146879678Y-41382036D01*
X146638194Y-41577585D01*
X146630305Y-41588851D01*
X101489692Y-41588851D01*
X101489693Y-41588850D01*
X101481807Y-41577587D01*
X101240315Y-41382032D01*
X101235061Y-41378215D01*
X100915266Y-41170537D01*
X100909645Y-41167291D01*
X100569883Y-40994174D01*
X100563959Y-40991537D01*
X100207955Y-40854879D01*
X100201802Y-40852880D01*
X99833462Y-40754184D01*
X99827120Y-40752836D01*
X99450491Y-40693184D01*
X99444048Y-40692507D01*
X99063244Y-40672550D01*
X99056756Y-40672550D01*
X98675951Y-40692507D01*
X98669508Y-40693184D01*
X98292879Y-40752836D01*
X98286537Y-40754184D01*
X97918197Y-40852880D01*
X97912044Y-40854879D01*
X97556040Y-40991537D01*
X97550116Y-40994174D01*
X97210354Y-41167291D01*
X97204733Y-41170537D01*
X96884939Y-41378214D01*
X96879678Y-41382036D01*
X96638194Y-41577585D01*
X96630305Y-41588851D01*
X96139737Y-41588851D01*
X96228310Y-41494878D01*
X96236746Y-41486738D01*
X96522128Y-41236407D01*
X96531314Y-41229091D01*
X96839119Y-41006938D01*
X96848944Y-41000533D01*
X97176439Y-40808534D01*
X97186812Y-40803097D01*
X97531018Y-40643001D01*
X97541870Y-40638567D01*
X97899695Y-40511811D01*
X97910926Y-40508422D01*
X98279143Y-40416146D01*
X98290671Y-40413832D01*
X98665971Y-40356866D01*
X98677646Y-40355658D01*
X99058882Y-40334387D01*
X99065727Y-40334195D01*
X148956528Y-40330504D01*
X148961127Y-40330748D01*
X148967744Y-40332532D01*
X148977490Y-40332035D01*
X148977493Y-40332036D01*
X149004504Y-40330660D01*
X149010779Y-40330499D01*
X149027866Y-40330499D01*
X149029574Y-40330179D01*
X149032249Y-40330050D01*
X149398590Y-40328703D01*
X149410255Y-40329211D01*
G37*
%TD.AperFunction*%
%TD*%
M02*
